<svg width="32" height="37" viewBox="0 0 32 37" fill="none" xmlns="http://www.w3.org/2000/svg">
<g clip-path="url(#clip0_342_387)">
<path d="M16.0071 10.0717C11.4643 10.0717 7.79998 13.7359 7.79998 18.2788C7.79998 22.8217 11.4643 26.4859 16.0071 26.4859C20.55 26.4859 24.2143 22.8217 24.2143 18.2788C24.2143 13.7359 20.55 10.0717 16.0071 10.0717ZM16.0071 23.6145C13.0714 23.6145 10.6714 21.2217 10.6714 18.2788C10.6714 15.3359 13.0643 12.9431 16.0071 12.9431C18.95 12.9431 21.3428 15.3359 21.3428 18.2788C21.3428 21.2217 18.9428 23.6145 16.0071 23.6145ZM26.4643 9.73594C26.4643 10.8002 25.6071 11.6502 24.55 11.6502C23.4857 11.6502 22.6357 10.7931 22.6357 9.73594C22.6357 8.67879 23.4928 7.82165 24.55 7.82165C25.6071 7.82165 26.4643 8.67879 26.4643 9.73594ZM31.9 11.6788C31.7786 9.11451 31.1928 6.84308 29.3143 4.97165C27.4428 3.10022 25.1714 2.51451 22.6071 2.38594C19.9643 2.23594 12.0428 2.23594 9.39999 2.38594C6.84284 2.50737 4.57141 3.09308 2.69284 4.96451C0.814272 6.83594 0.2357 9.10737 0.107129 11.6717C-0.0428711 14.3145 -0.0428711 22.2359 0.107129 24.8788C0.228557 27.4431 0.814272 29.7145 2.69284 31.5859C4.57141 33.4574 6.8357 34.0431 9.39999 34.1717C12.0428 34.3217 19.9643 34.3217 22.6071 34.1717C25.1714 34.0502 27.4428 33.4645 29.3143 31.5859C31.1857 29.7145 31.7714 27.4431 31.9 24.8788C32.05 22.2359 32.05 14.3217 31.9 11.6788ZM28.4857 27.7145C27.9286 29.1145 26.85 30.1931 25.4428 30.7574C23.3357 31.5931 18.3357 31.4002 16.0071 31.4002C13.6786 31.4002 8.67141 31.5859 6.57141 30.7574C5.17141 30.2002 4.09284 29.1217 3.52856 27.7145C2.69284 25.6074 2.8857 20.6074 2.8857 18.2788C2.8857 15.9502 2.69999 10.9431 3.52856 8.84308C4.0857 7.44308 5.16427 6.36451 6.57141 5.80022C8.67856 4.96451 13.6786 5.15737 16.0071 5.15737C18.3357 5.15737 23.3428 4.97165 25.4428 5.80022C26.8428 6.35737 27.9214 7.43594 28.4857 8.84308C29.3214 10.9502 29.1286 15.9502 29.1286 18.2788C29.1286 20.6074 29.3214 25.6145 28.4857 27.7145Z" fill="white"/>
</g>
<defs>
<clipPath id="clip0_342_387">
<rect width="32" height="36.5714" fill="white"/>
</clipPath>
</defs>
</svg>
