<svg width="29" height="40" viewBox="0 0 29 40" fill="none" xmlns="http://www.w3.org/2000/svg">
<path d="M16.2898 39C20.1641 33.9844 29 21.8281 29 15C29 6.71875 22.5052 0 14.5 0C6.49479 0 0 6.71875 0 15C0 21.8281 8.83594 33.9844 12.7102 39C13.6391 40.1953 15.3609 40.1953 16.2898 39ZM14.5 10C15.7819 10 17.0113 10.5268 17.9177 11.4645C18.8241 12.4021 19.3333 13.6739 19.3333 15C19.3333 16.3261 18.8241 17.5979 17.9177 18.5355C17.0113 19.4732 15.7819 20 14.5 20C13.2181 20 11.9887 19.4732 11.0823 18.5355C10.1759 17.5979 9.66667 16.3261 9.66667 15C9.66667 13.6739 10.1759 12.4021 11.0823 11.4645C11.9887 10.5268 13.2181 10 14.5 10Z" fill="#FF4E00"/>
</svg>
